<svg width="16" height="16" viewBox="0 0 16 16" fill="none" xmlns="http://www.w3.org/2000/svg">
<path d="M7.00249 0L6.00499 2.37406C5.80549 2.43392 5.62594 2.53367 5.44638 2.63342L3.07232 1.63591L1.63591 3.07232L2.63342 5.44638C2.53367 5.64589 2.45387 5.80549 2.37406 6.00499L0 7.00249V8.99751L2.37406 9.99501C2.45387 10.1945 2.53367 10.3541 2.63342 10.5536L1.63591 12.9277L3.07232 14.3641L5.44638 13.3666C5.62594 13.4464 5.80549 13.5461 6.00499 13.6259L7.00249 16H8.99751L9.99501 13.6259C10.1746 13.5461 10.3741 13.4663 10.5536 13.3666L12.9277 14.3641L14.3641 12.9277L13.3666 10.5536C13.4464 10.3741 13.5461 10.1746 13.6259 9.99501L16 8.99751V7.00249L13.6259 6.00499C13.5661 5.82544 13.4663 5.62594 13.3666 5.44638L14.3641 3.07232L12.9277 1.63591L10.5536 2.63342C10.3741 2.55362 10.1746 2.45387 9.99501 2.37406L8.99751 0L7.00249 0ZM8 4.98753C9.65586 4.98753 10.9925 6.32419 10.9925 7.98005C10.9925 9.63591 9.65586 10.9726 8 10.9726C6.34414 10.9726 5.00748 9.63591 5.00748 7.98005C5.00748 6.32419 6.34414 4.98753 8 4.98753Z" fill="black"/>
</svg>
